<?xml version="1.0" standalone="no"?>
<!DOCTYPE svg PUBLIC "-//W3C//DTD SVG 20010904//EN"
 "http://www.w3.org/TR/2001/REC-SVG-20010904/DTD/svg10.dtd">
<svg version="1.0" xmlns="http://www.w3.org/2000/svg"
 width="16.000000pt" height="16.000000pt" viewBox="0 0 16.000000 16.000000"
 preserveAspectRatio="xMidYMid meet">

<g transform="translate(0.000000,16.000000) scale(0.100000,-0.100000)"
fill="#000000" stroke="none">
<path d="M10 75 c0 -43 1 -45 30 -45 17 0 30 5 30 10 0 6 -9 10 -20 10 -16 0
-20 7 -20 35 0 19 -4 35 -10 35 -5 0 -10 -20 -10 -45z"/>
<path d="M80 75 c0 -25 5 -45 10 -45 6 0 10 7 10 17 0 14 2 14 20 -2 11 -10
22 -16 25 -13 3 3 -1 11 -10 18 -8 7 -15 18 -15 25 0 7 7 18 15 25 9 7 13 15
10 18 -3 3 -14 -3 -25 -13 -18 -16 -20 -16 -20 -2 0 10 -4 17 -10 17 -5 0 -10
-20 -10 -45z"/>
</g>
</svg>
